<?xml version="1.0" encoding="UTF-8"?>
<svg id="Layer_2" data-name="Layer 2" xmlns="http://www.w3.org/2000/svg" viewBox="0 0 434.5 444.45">
  <g id="Layer_1-2" data-name="Layer 1">
    <g>
      <path d="M34.07,144.26h313.36v-55.96c0-1.72-.72-3.3-2.15-4.73-1.43-1.44-3.01-2.15-4.73-2.15H40.96c-1.72,0-3.3.72-4.73,2.15-1.44,1.43-2.15,3.01-2.15,4.73,0,0,0,55.96,0,55.96ZM34.07,144.26v-62.84,62.84ZM40.96,428.35c-11.31,0-20.88-3.92-28.71-11.75-7.83-7.83-11.75-17.4-11.75-28.71V88.31c0-11.31,3.92-20.88,11.75-28.71,7.83-7.83,17.4-11.75,28.71-11.75h30.99v-30.13c0-4.91,1.64-9,4.93-12.29,3.29-3.28,7.38-4.92,12.29-4.92,4.91,0,9.01,1.64,12.29,4.92,3.29,3.29,4.93,7.38,4.93,12.29v30.13h169.59v-30.56c0-4.76,1.61-8.75,4.82-11.97,3.22-3.21,7.21-4.82,11.97-4.82,4.76,0,8.75,1.61,11.96,4.82,3.22,3.22,4.82,7.21,4.82,11.97v30.56h30.99c11.31,0,20.88,3.92,28.71,11.75,7.83,7.83,11.75,17.4,11.75,28.71v105.5c0,4.76-1.61,8.75-4.82,11.96-3.21,3.22-7.2,4.82-11.96,4.82s-8.75-1.61-11.96-4.82c-3.22-3.21-4.82-7.2-4.82-11.96v-15.97H34.07v210.05c0,1.72.72,3.3,2.15,4.73,1.43,1.44,3.01,2.15,4.73,2.15h136.92c4.76,0,8.75,1.61,11.97,4.82,3.21,3.21,4.82,7.2,4.82,11.96s-1.61,8.75-4.82,11.96c-3.22,3.22-7.21,4.82-11.97,4.82H40.96Z" style="fill: gray; stroke: gray; stroke-miterlimit: 10;"/>
      <path d="M404.6,271.91c-19.6-19.6-43.37-29.4-71.32-29.4s-51.72,9.8-71.32,29.4-29.4,43.37-29.4,71.32,9.8,51.72,29.4,71.32,43.37,29.4,71.32,29.4,51.72-9.8,71.32-29.4,29.4-43.37,29.4-71.32-9.8-51.72-29.4-71.32ZM373.6,396.76c-2.09,2.1-4.45,3.11-7.08,3.04-2.62-.07-4.91-1.08-6.86-3.04l-34.14-34.13c-2.09-2.1-3.63-4.36-4.6-6.8-.98-2.44-1.47-5.01-1.47-7.71v-51.56c0-2.7.98-5.02,2.93-6.97,1.95-1.96,4.27-2.93,6.97-2.93s5.02.97,6.97,2.93c1.96,1.95,2.94,4.27,2.94,6.97v51.91l34.34,34.34c2.1,2.1,3.15,4.43,3.15,6.98s-1.05,4.88-3.15,6.97Z" style="fill: #395be5; stroke: gray; stroke-miterlimit: 10;"/>
    </g>
  </g>
</svg>